<!--?xml version="1.0" encoding="utf-8"?-->
<!-- Generator: Adobe Illustrator 19.1.1, SVG Export Plug-In . SVG Version: 6.00 Build 0)  -->
<svg version="1.1" id="_x31_0" xmlns="http://www.w3.org/2000/svg" xmlns:xlink="http://www.w3.org/1999/xlink" x="0px" y="0px" viewBox="0 0 512 512" style="width: 64px; height: 64px; opacity: 1;" xml:space="preserve">
<style type="text/css">
	.st0{fill:#374149;}
</style>
<g>
	<path class="st0" d="M498.238,326.992c-0.027-4.195-0.074-8.34-0.074-8.34l-0.078-5.664l-4.297-3.71l-25.523-22.09l-0.004-0.004
		v-14.66h-6.504v5.254l-0.11,3.664l-44.254-38.301l-4.446-3.84l-4.426-3.867l-5.691-4.922l0.973-5.504l0.511-2.782l2.969-16.535
		l0.16-0.945v-28.024v-0.086l0,0v-0.16h-42.277l-0.13-0.004v0.004h-0.164v12.847l-0.102,8.25l-7.32-6.34l-8.898-7.684
		l-17.461-15.136l-5.055-4.371l-5.054-4.375l-25.574-22.16V99.297C295.41,38.054,280.297,0,256.012,0
		c-24.308,0-39.422,38.054-39.422,99.297v38.211l-25.574,22.16l-5.054,4.375l-5.055,4.371l-17.461,15.136l-8.898,7.684l-4.535,3.93
		l-2.886,2.367v-21.054h-42.282l-0.129-0.004v0.004h-0.16v28.27l0.16,0.945l2.969,16.535l0.512,2.782l0.976,5.504l-5.695,4.922
		l-4.422,3.867l-4.45,3.84l-25.629,22.183l-18.734,16.078v-8.664v-0.055l0,0v-0.16h-6.5v14.66l-0.007,0.004l-25.524,22.09
		l-4.297,3.71l-0.074,5.664c0,0-0.05,4.145-0.078,8.34c-0.074,10.891-0.102,13.492,3.714,17.336l3.715,3.762h5.281
		c3.313,0,3.489-0.074,12.184-4.926c3.816-2.121,9.274-5.156,15.82-8.793c13.062-7.305,30.477-17.008,47.863-26.738
		c6.122-3.418,12.168-6.797,18.082-10.094l4.965-2.684v6.078l-0.004,0.019h0.004v0.161h6.5v-9.989
		c5.957-3.312,11.41-6.367,16.418-9.16l3.148-1.672v7.344h6.504V276.55h0.004c5.914-3.285,10.285-5.738,12.434-6.926l39.199-9.668
		l8.102-1.965c0.668,22.082,1.691,46.938,3.242,71.313c0.839,13.316,1.75,21.875,2.722,31.699
		c-6.058,5.09-13.57,11.446-21.07,17.816c-16.832,14.254-33.61,28.504-33.61,28.504l-4.449,3.793v35.051l-0.047,9.828l0.047-0.012
		v0.165l16.222-4.801l24.453-7.238l29.238-8.454c0.145,0.598,0.29,1.203,0.442,1.774c4.473,18.02,8.566,23.789,10.614,26.699
		l1.898,2.699l1.664,2.629l-0.024,0.215v34.973l6.973,7.355l6.95-7.355v-34.973l-0.051-0.442l3.59-5.102
		c2.074-2.91,6.14-8.679,10.613-26.699c0.168-0.637,0.325-1.301,0.485-1.961l53.648,15.879l12.508,3.702l3.558,1.102v-0.05
		l0.157,0.047v-45.032l-4.446-3.793c0,0-16.782-14.25-33.614-28.504c-7.5-6.37-15.011-12.726-21.07-17.816
		c0.973-9.824,1.887-18.383,2.723-31.699c0.938-14.688,1.66-29.481,2.25-43.809c0.45-8.918,0.902-18.012,1.394-27.438l46.898,11.566
		c2.149,1.188,6.52,3.641,12.434,6.926h0.008v11.086h6.504v-4.875l0.082-2.508c5.718,3.176,12.336,6.871,19.48,10.875v9.793v0.031
		l0,0v0.161h6.504v-4.344l0.07-1.957c7.41,4.105,15.191,8.461,22.977,12.82c17.386,9.73,34.797,19.434,47.863,26.738
		c6.543,3.637,12.004,6.672,15.82,8.793c8.691,4.852,8.867,4.926,12.18,4.926h5.281l3.715-3.762
		C498.34,340.484,498.312,337.883,498.238,326.992z" style="fill: rgb(255, 255, 255);"></path>
</g>
</svg>
